Coordinates
version=1
nRows=16
nColumns=36
inDegrees=yes

Units are S.I. units (second, meters, Newtons, ...)
If the header above contains a line with 'inDegrees', this indicates whether rotational values are in degrees (yes) or radians (no).

endheader
time	pelvis_tilt	pelvis_list	pelvis_rotation	pelvis_tx	pelvis_ty	pelvis_tz	hip_flexion_r	hip_adduction_r	hip_rotation_r	knee_angle_r	knee_angle_r_beta	ankle_angle_r	subtalar_angle_r	mtp_angle_r	hip_flexion_l	hip_adduction_l	hip_rotation_l	knee_angle_l	knee_angle_l_beta	ankle_angle_l	subtalar_angle_l	mtp_angle_l	lumbar_extension	lumbar_bending	lumbar_rotation	arm_flex_r	arm_add_r	arm_rot_r	elbow_flex_r	pro_sup_r	arm_flex_l	arm_add_l	arm_rot_l	elbow_flex_l	pro_sup_l
     44.75000000	      2.37458942	      0.27394317	     -2.93719394	      0.46772409	      1.01921609	      0.72276302	     20.19336192	     -1.72821718	      1.07078990	      6.81165244	      0.11888576	      2.90892746	      0.29968615	     -7.49999987	     -6.20599949	      1.72886895	      0.10305389	     13.86309096	      0.24195658	     15.36112016	     -3.03591638	     -7.49999987	    -14.21082604	     -1.80706574	      4.76080142	     -4.36890550	    -14.07864215	     -6.88662892	     33.04868641	     91.21511511	     17.12688252	    -16.59098822	     25.10981740	     27.89507265	     91.82784340
     44.76666670	      2.38625387	      0.01073734	     -2.88622975	      0.46599828	      1.02059836	      0.72479109	     19.96867046	     -1.31397940	      0.90097919	      6.06055831	      0.10577670	      2.85347054	      0.64134250	     -7.49999987	     -7.11327140	      1.08849121	     -0.78199443	     14.47410677	      0.25262082	     15.30821798	     -3.48065826	     -7.49999987	    -14.03469549	     -1.33437805	      4.73912815	     -4.01443141	    -14.27015066	     -6.60083583	     32.54341499	     91.46035264	     16.96990828	    -16.55099892	     25.29785209	     27.53564324	     91.72846229
     44.78333330	      2.35355699	     -0.28059878	     -2.84880915	      0.46444210	      1.02155788	      0.72600833	     19.82037543	     -0.83663743	      0.71986485	      5.96510632	      0.10411075	      2.34805506	      0.53599553	     -7.49999987	     -7.89966502	      0.46538684	     -1.54565785	     15.05914124	      0.26283160	     15.23138253	     -3.99259066	     -7.49999987	    -13.81057457	     -0.82572032	      4.54477778	     -3.21983627	    -14.53533648	     -5.49761592	     31.52370293	     91.36306500	     16.56152957	    -16.45728406	     25.06392762	     27.16452489	     91.00975723
     44.80000000	      2.53440895	     -0.61574280	     -2.79179585	      0.46444212	      1.02149629	      0.72619668	     19.38495735	     -0.33743985	      0.56258085	      6.35511102	      0.11091761	      1.42272493	      0.09312406	     -7.49999987	     -8.80827446	     -0.12745529	     -2.19707111	     15.62764732	      0.27275390	     15.12058021	     -4.37699461	     -7.49999987	    -13.82744789	     -0.26171043	      4.31812120	     -2.54134782	    -14.85839047	     -4.39423067	     31.02132658	     90.75368291	     16.08388443	    -16.33979734	     24.74084995	     26.92396739	     89.92855566
     44.81666670	      2.72887757	     -0.96835421	     -2.71448549	      0.46665041	      1.01943300	      0.72622596	     18.89786053	      0.13702682	      0.34412022	      7.10653859	      0.12403250	      0.43465330	     -0.30952673	     -7.49999987	     -9.53727836	     -0.67689679	     -2.70990811	     16.36458638	      0.28561591	     14.96413556	     -4.80567544	     -7.49999987	    -13.88169317	      0.34924459	      4.35643918	     -2.32166759	    -15.06115380	     -4.31497300	     31.01393286	     90.84931175	     15.75281337	    -16.07937590	     24.70110333	     26.70786459	     89.95943764
     44.83333330	      3.18690415	     -1.34124979	     -2.68342997	      0.47136504	      1.01643853	      0.72722611	     18.05193060	      0.64402915	      0.48535746	      7.94489290	      0.13866454	     -0.80840901	     -1.47262374	     -7.49999987	    -10.48908773	     -1.19919544	     -3.19609232	     17.08021747	      0.29810603	     14.65774403	     -5.13667134	     -7.49999987	    -14.10304275	      0.94555980	      4.36403512	     -2.00802146	    -15.30830151	     -3.88263645	     30.67624870	     91.01867647	     15.45511855	    -15.61630829	     24.17521003	     26.04565767	     89.81912807
     44.85000000	      3.56912800	     -1.78215117	     -2.71475187	      0.47796025	      1.01479005	      0.72952679	     17.26745785	      1.25160897	      0.73640103	      8.88957565	      0.15515236	     -1.74380249	     -2.50453104	     -7.49999987	    -11.31696744	     -1.79961045	     -3.71386148	     17.91732720	      0.31271635	     14.15904852	     -5.34508414	     -7.49999987	    -14.10978109	      1.61237439	      4.42868560	     -1.75956936	    -15.57055603	     -3.18573343	     30.02096208	     91.33050044	     14.99671636	    -14.99626973	     23.20326765	     25.12768331	     89.67186861
     44.86666670	      3.95398438	     -2.31738279	     -2.65998513	      0.48457572	      1.01557283	      0.73281053	     16.34659427	      1.96043981	      0.89702919	      9.66832648	      0.16874413	     -2.42391056	     -3.41459153	     -7.49999987	    -12.05652289	     -2.54951907	     -4.11598440	     18.99416521	      0.33151072	     13.41258513	     -5.48163298	     -7.49999987	    -14.10724379	      2.41859823	      4.47358546	     -1.68602150	    -15.83716503	     -2.78197509	     29.54905436	     91.40929738	     14.36025260	    -14.41181092	     22.55775199	     24.40347404	     89.51716762
     44.88333330	      4.19920014	     -2.84645673	     -2.61035103	      0.48931617	      1.01833216	      0.73706869	     15.54899626	      2.69429185	      1.01171038	     10.47353176	      0.18279761	     -2.50284650	     -3.80623740	     -7.49999987	    -12.51279002	     -3.33261334	     -4.52191087	     20.32509381	      0.35473981	     12.49404720	     -5.54730904	     -7.49999987	    -13.92483242	      3.17546571	      4.65629968	     -1.81572640	    -16.02498558	     -2.70452988	     29.31539170	     91.43523356	     13.57925009	    -13.97168180	     22.48637642	     24.00863637	     89.50587443
     44.90000000	      4.57775205	     -3.48996762	     -2.44126134	      0.49122363	      1.02244955	      0.74091007	     14.39437005	      3.60138850	      1.64090783	     10.90546775	      0.19033632	     -2.91866182	     -5.21123367	     -7.49999987	    -12.84537115	     -4.28677040	     -4.83696754	     22.06774354	      0.38515478	     11.84471711	     -5.40691312	     -7.49999987	    -13.74772857	      4.05133424	      4.42114393	     -0.96359204	    -16.38022929	     -0.51870257	     27.59886202	     90.64341577	     12.88073659	    -12.99100363	     20.74662603	     21.98047975	     88.44446395
     44.91666670	      4.86606258	     -4.07412734	     -2.24013377	      0.49161375	      1.02616235	      0.74313634	     13.32951916	      4.42671332	      2.12241516	     11.35135175	      0.19811846	     -2.70239519	     -6.12839441	     -7.49999987	    -12.78391493	     -5.20530584	     -5.02125335	     24.16837663	      0.42181775	     11.04776788	     -5.40493417	     -7.49999987	    -13.68512106	      4.83930684	      4.25481128	     -0.32034380	    -16.74308508	      1.60399455	     26.77169539	     88.48380803	     12.02278624	    -12.48119729	     20.37637842	     21.03923511	     86.86801944
     44.93333330	      5.12119706	     -4.58985812	     -2.01228114	      0.49267601	      1.02894541	      0.74408247	     12.26161288	      5.16658614	      2.62043061	     11.72958057	      0.20471980	     -2.10409497	     -7.03061734	     -7.49999987	    -12.29291837	     -6.06229868	     -4.92180583	     26.79533647	      0.46766685	      9.95167085	     -5.78342716	     -7.49999987	    -13.74070891	      5.53602670	      4.33272516	      0.01459850	    -16.99284514	      2.13011976	     26.72855308	     89.88202478	     11.37013939	    -11.86050590	     18.88447160	     20.15425158	     91.30471668
     44.95000000	      5.47725970	     -5.09567932	     -1.88683303	      0.49503410	      1.03118698	      0.74561377	     11.02908759	      5.91815381	      3.11556664	     12.05048655	      0.21032067	     -0.93799863	     -7.64322298	     -7.49999987	    -11.47016365	     -6.96783702	     -4.90244691	     30.09980504	      0.52534070	      8.46650996	     -6.10313187	     -7.49999987	    -14.08848198	      6.17041957	      4.63019840	      0.43479882	    -17.19765245	      2.16571671	     26.78421067	     89.89578737	     10.77897273	    -11.51117906	     18.96613480	     19.77460220	     91.33251735
     44.96666670	      5.46585672	     -5.63667097	     -1.55847379	      0.49718668	      1.03203480	      0.74795349	     10.08467065	      6.71140703	      3.40026219	     12.20478255	      0.21301364	      0.14805978	     -8.73500523	     -7.49999987	     -9.37971704	     -7.96282745	     -4.19897632	     34.70519577	      0.60571993	      6.22588133	     -7.42740874	     -7.49999987	    -13.91616211	      6.96701192	      4.43310184	      1.16038425	    -17.49327461	      3.11966334	     26.56712988	     90.09365673	     10.26705298	    -11.09119525	     19.24457128	     18.45852038	     91.47022895
     44.98333330	      5.60836916	     -6.20501935	     -1.32510757	      0.49704091	      1.03209371	      0.75155991	      8.87171115	      7.58084499	      3.56220851	     12.20306001	      0.21298358	      1.57323607	     -9.32128322	     -7.49999987	     -6.83568722	     -9.00728722	     -3.52101416	     40.16093063	      0.70094047	      3.28110724	     -8.87628019	     -7.49999987	    -14.11633003	      7.72867356	      4.49636217	      1.85023085	    -17.77814541	      3.93855869	     26.48356295	     90.21607913	      9.75073226	    -10.82237616	     19.60564444	     17.80906235	     91.62184335
     45.00000000	      5.73343813	     -6.70703238	     -1.02255841	      0.49322027	      1.03132383	      0.75621320	      7.57753216	      8.37776752	      3.44463323	     11.91813084	      0.20801062	      2.85632939	     -9.70420201	     -7.49999987	     -3.90196219	     -9.92222644	     -2.59788433	     45.79077366	      0.79919977	      0.42168571	    -10.57143804	     -7.49999987	    -14.45410416	      8.36759960	      4.61491235	      2.38335706	    -18.00121034	      4.39989256	     26.77584463	     90.14221063	      9.31934627	    -10.61860645	     19.93298405	     17.40663943	     91.62379664
